<svg width="136" height="34" viewBox="0 0 136 34" fill="none" xmlns="http://www.w3.org/2000/svg">
<mask id="mask0_0_697" style="mask-type:alpha" maskUnits="userSpaceOnUse" x="0" y="0" width="136" height="34">
<g clip-path="url(#clip0_0_697)">
<g clip-path="url(#clip1_0_697)">
<path d="M0.698608 34H12.226C17.6921 34 22.1233 29.5689 22.1233 24.1028H10.5959C5.12976 24.1028 0.698608 28.5339 0.698608 34Z" fill="#F22BB2"/>
<path d="M1.21429 9.89726V24.4521C6.6804 24.4521 11.1116 20.0209 11.1116 14.5548V0C5.64545 0 1.21429 4.43115 1.21429 9.89726Z" fill="#8C30F5"/>
<path d="M33.3014 0H21.774C16.3079 0 11.8767 4.43115 11.8767 9.89726H23.4041C28.8702 9.89726 33.3014 5.46611 33.3014 0Z" fill="#FE9A22"/>
<path d="M33.3014 23.5205V8.9657C27.8353 8.9657 23.4041 13.3969 23.4041 18.863V33.4178C28.8702 33.4178 33.3014 28.9866 33.3014 23.5205Z" fill="#2EC5CE"/>
</g>
<path d="M49.0571 21.76V8.49997H45.1714V25.5H55.1286V21.76H49.0571Z" fill="black"/>
<path d="M65.4156 13.3571V14.4985C64.6142 13.5757 63.4242 13.0171 61.7971 13.0171C58.6156 13.0171 55.9928 15.81 55.9928 19.4285C55.9928 23.0471 58.6156 25.84 61.7971 25.84C63.4242 25.84 64.6142 25.2814 65.4156 24.3585V25.5H69.0585V13.3571H65.4156ZM62.5256 22.3914C60.8499 22.3914 59.6356 21.25 59.6356 19.4285C59.6356 17.6071 60.8499 16.4657 62.5256 16.4657C64.2014 16.4657 65.4156 17.6071 65.4156 19.4285C65.4156 21.25 64.2014 22.3914 62.5256 22.3914Z" fill="black"/>
<path d="M78.8468 13.0171C77.2439 13.0171 76.0296 13.6 75.3739 14.4985V13.3571H71.7311V25.5H75.3739V18.87C75.3739 17.1457 76.2968 16.3685 77.6325 16.3685C78.7982 16.3685 79.7454 17.0728 79.7454 18.5785V25.5H83.3882V18.0443C83.3882 14.7657 81.2996 13.0171 78.8468 13.0171Z" fill="black"/>
<path d="M94.7055 8.49997V14.4985C93.9041 13.5757 92.7141 13.0171 91.087 13.0171C87.9055 13.0171 85.2827 15.81 85.2827 19.4285C85.2827 23.0471 87.9055 25.84 91.087 25.84C92.7141 25.84 93.9041 25.2814 94.7055 24.3585V25.5H98.3484V8.49997H94.7055ZM91.8155 22.3914C90.1398 22.3914 88.9255 21.25 88.9255 19.4285C88.9255 17.6071 90.1398 16.4657 91.8155 16.4657C93.4913 16.4657 94.7055 17.6071 94.7055 19.4285C94.7055 21.25 93.4913 22.3914 91.8155 22.3914Z" fill="black"/>
<path d="M102.842 12.2885C104.032 12.2885 105.028 11.2928 105.028 10.1028C105.028 8.91283 104.032 7.91711 102.842 7.91711C101.652 7.91711 100.657 8.91283 100.657 10.1028C100.657 11.2928 101.652 12.2885 102.842 12.2885ZM101.021 25.5H104.664V13.3571H101.021V25.5Z" fill="black"/>
<path d="M114.008 11.6571V8.15997C109.977 7.91711 108.107 9.95711 108.107 13.3571H106.48V16.8543H108.107V25.5H111.75V16.8543H114.008V13.3571H111.75C111.75 11.9485 112.648 11.5357 114.008 11.6571Z" fill="black"/>
<path d="M123.47 13.3571L121.187 20.7885L118.492 13.3571H114.484L119.317 24.9414C118.783 26.4228 117.981 26.9571 116.282 26.9571V30.3571C119.681 30.5271 121.843 28.9971 123.203 25.1357L127.356 13.3571H123.47Z" fill="black"/>
<path d="M130.866 5.09998H127.583V5.94148H128.781V9.56248H129.661V5.94148H130.866V5.09998Z" fill="black"/>
<path d="M135.724 5.09998H134.819L133.544 7.2101L132.262 5.09998H131.357V9.56248H132.237V6.6746L133.493 8.7401H133.595L134.851 6.66823V9.56248H135.724V5.09998Z" fill="black"/>
</g>
</mask>
<g mask="url(#mask0_0_697)">
<rect width="136" height="34" fill="white"/>
</g>
<defs>
<clipPath id="clip0_0_697">
<rect width="136" height="34" fill="white"/>
</clipPath>
<clipPath id="clip1_0_697">
<rect width="34" height="34" fill="white"/>
</clipPath>
</defs>
</svg>
