<svg width="32" height="32" viewBox="0 0 32 32" fill="none" xmlns="http://www.w3.org/2000/svg">
<path fill-rule="evenodd" clip-rule="evenodd" d="M9.77387 2.66718H22.2259C26.7605 2.66718 29.3205 5.23918 29.3339 9.77384V22.2272C29.3339 26.7605 26.7605 29.3338 22.2259 29.3338H9.77387C5.23921 29.3338 2.66721 26.7605 2.66721 22.2272V9.77384C2.66721 5.23918 5.23921 2.66718 9.77387 2.66718ZM16.0659 23.8138C16.6405 23.8138 17.1192 23.3872 17.1725 22.8138V9.22718C17.2259 8.81384 17.0272 8.39918 16.6672 8.17384C16.2925 7.94718 15.8392 7.94718 15.4805 8.17384C15.1192 8.39918 14.9205 8.81384 14.9592 9.22718V22.8138C15.0272 23.3872 15.5059 23.8138 16.0659 23.8138ZM22.2005 23.8138C22.7605 23.8138 23.2392 23.3872 23.3072 22.8138V18.4405C23.3459 18.0125 23.1472 17.6138 22.7859 17.3872C22.4272 17.1605 21.9739 17.1605 21.6005 17.3872C21.2392 17.6138 21.0405 18.0125 21.0939 18.4405V22.8138C21.1472 23.3872 21.6259 23.8138 22.2005 23.8138ZM10.9592 22.8138C10.9059 23.3872 10.4272 23.8138 9.85254 23.8138C9.27921 23.8138 8.79921 23.3872 8.74721 22.8138V13.6005C8.70721 13.1858 8.90587 12.7738 9.26721 12.5472C9.62587 12.3205 10.0805 12.3205 10.4405 12.5472C10.7992 12.7738 11.0005 13.1858 10.9592 13.6005V22.8138Z" fill="#1A1A1F"/>
</svg>
