<svg width="32" height="32" viewBox="0 0 32 32" fill="none" xmlns="http://www.w3.org/2000/svg">
<path fill-rule="evenodd" clip-rule="evenodd" d="M16 29.3335C8.64001 29.3335 2.66667 23.3735 2.66667 16.0001C2.66667 8.64014 8.64001 2.66681 16 2.66681C23.3733 2.66681 29.3333 8.64014 29.3333 16.0001C29.3333 23.3735 23.3733 29.3335 16 29.3335ZM20.2533 20.9468C20.4133 21.0401 20.5867 21.0935 20.7733 21.0935C21.1067 21.0935 21.44 20.9201 21.6267 20.6001C21.9067 20.1335 21.76 19.5201 21.28 19.2268L16.5333 16.4001V10.2401C16.5333 9.68014 16.08 9.24014 15.5333 9.24014C14.9867 9.24014 14.5333 9.68014 14.5333 10.2401V16.9735C14.5333 17.3201 14.72 17.6401 15.0267 17.8268L20.2533 20.9468Z" fill="#1A1A1F"/>
</svg>
